# xmcd CD database file
#
# Track frame offsets:
#	150
#	41951
#	75195
#	119801
#	151145
#	190895
#	246558
#	284154
#
# Disc length: 4200 seconds
#
# Revision: 0
# Processed by: cddbd v1.5.2PL0 Copyright (c) Steve Scherf et al.
# Submitted via: CDex 1.70beta2
#
DISCID=74106608
DTITLE=Thomas Tedesco - Don't Ever Be Afraid To Be Ascared
DYEAR=1995
DGENRE=Jazz
TTITLE0=Can You Hear It
TTITLE1=Doris Marie
TTITLE2=Quick To Hear You Speak
TTITLE3=Paris Eyes
TTITLE4=Limpop
TTITLE5=The Alchemy Of Bobby Bradford
TTITLE6=To Drink Water From A Wooden Bowl
TTITLE7=Don't Every Be Afraid To Be Ascared
EXTD=YEAR: 1995
EXTT0=
EXTT1=
EXTT2=
EXTT3=
EXTT4=
EXTT5=
EXTT6=
EXTT7=
PLAYORDER=
